<svg width="122" height="51" viewBox="0 0 122 51" fill="none" xmlns="http://www.w3.org/2000/svg">
<rect x="0.0371094" width="121.782" height="50.9207" rx="4.05687" fill="white"/>
<path d="M31.7963 35.8522C30.5539 37.0566 29.1974 36.8664 27.8916 36.2959C26.5097 35.7127 25.2419 35.6874 23.784 36.2959C21.9584 37.0819 20.9949 36.8537 19.9046 35.8522C13.7179 29.4753 14.6307 19.7641 21.6541 19.4092C23.3656 19.4979 24.5573 20.3473 25.5589 20.4234C27.0549 20.1191 28.4874 19.2444 30.0848 19.3585C31.9992 19.5106 33.4444 20.2713 34.3953 21.6404C30.4398 24.0112 31.378 29.2217 35.0038 30.6797C34.2812 32.5813 33.343 34.4703 31.7836 35.8649L31.7963 35.8522ZM25.4321 19.3331C25.2419 16.506 27.5366 14.1733 30.1736 13.9451C30.5412 17.2159 27.207 19.65 25.4321 19.3331Z" fill="#BC172F"/>
<path d="M47.9839 12.8347C48.549 12.8347 49.0429 12.9442 49.4654 13.1631C49.8931 13.3769 50.2214 13.6875 50.4505 14.0948C50.6847 14.497 50.8018 14.9679 50.8018 15.5075C50.8018 16.0472 50.6847 16.5155 50.4505 16.9126C50.2214 17.3097 49.8931 17.6152 49.4654 17.829C49.0429 18.0377 48.549 18.1421 47.9839 18.1421H46.2505V12.8347H47.9839ZM47.9839 17.4319C48.605 17.4319 49.0811 17.2639 49.412 16.9279C49.7429 16.5919 49.9083 16.1184 49.9083 15.5075C49.9083 14.8915 49.7429 14.4104 49.412 14.0642C49.0811 13.718 48.605 13.5449 47.9839 13.5449H47.121V17.4319H47.9839ZM53.4897 18.2108C53.0926 18.2108 52.7337 18.1217 52.413 17.9435C52.0922 17.7603 51.8402 17.5057 51.657 17.1799C51.4737 16.849 51.3821 16.4672 51.3821 16.0344C51.3821 15.6068 51.4762 15.2275 51.6646 14.8966C51.853 14.5657 52.1101 14.3111 52.4359 14.1329C52.7617 13.9548 53.1257 13.8657 53.5279 13.8657C53.9301 13.8657 54.2941 13.9548 54.6199 14.1329C54.9457 14.3111 55.2028 14.5657 55.3912 14.8966C55.5796 15.2275 55.6737 15.6068 55.6737 16.0344C55.6737 16.4621 55.577 16.8413 55.3836 17.1723C55.1901 17.5032 54.9254 17.7603 54.5894 17.9435C54.2585 18.1217 53.8919 18.2108 53.4897 18.2108ZM53.4897 17.4548C53.7137 17.4548 53.9225 17.4014 54.1159 17.2944C54.3145 17.1875 54.4748 17.0272 54.597 16.8133C54.7192 16.5995 54.7803 16.3399 54.7803 16.0344C54.7803 15.729 54.7217 15.4719 54.6046 15.2631C54.4875 15.0493 54.3323 14.889 54.1388 14.782C53.9454 14.6751 53.7366 14.6217 53.5126 14.6217C53.2886 14.6217 53.0799 14.6751 52.8864 14.782C52.6981 14.889 52.5479 15.0493 52.4359 15.2631C52.3239 15.4719 52.2679 15.729 52.2679 16.0344C52.2679 16.4875 52.3824 16.8388 52.6115 17.0883C52.8457 17.3326 53.1384 17.4548 53.4897 17.4548ZM62.1853 13.9344L60.8795 18.1421H59.9631L59.1155 15.034L58.2678 18.1421H57.3514L56.038 13.9344H56.9238L57.802 17.3174L58.6955 13.9344H59.6042L60.4595 17.3021L61.33 13.9344H62.1853ZM64.9589 13.8657C65.2898 13.8657 65.585 13.9344 65.8447 14.0719C66.1094 14.2093 66.3156 14.4129 66.4632 14.6828C66.6109 14.9526 66.6847 15.2784 66.6847 15.6602V18.1421H65.8218V15.7901C65.8218 15.4133 65.7276 15.1257 65.5392 14.9271C65.3509 14.7235 65.0938 14.6217 64.7679 14.6217C64.4421 14.6217 64.1825 14.7235 63.989 14.9271C63.8007 15.1257 63.7065 15.4133 63.7065 15.7901V18.1421H62.8359V13.9344H63.7065V14.4155C63.849 14.2424 64.0297 14.1075 64.2487 14.0108C64.4727 13.914 64.7094 13.8657 64.9589 13.8657ZM68.6657 12.4911V18.1421H67.7951V12.4911H68.6657ZM71.6338 18.2108C71.2367 18.2108 70.8778 18.1217 70.557 17.9435C70.2363 17.7603 69.9843 17.5057 69.801 17.1799C69.6178 16.849 69.5261 16.4672 69.5261 16.0344C69.5261 15.6068 69.6203 15.2275 69.8087 14.8966C69.997 14.5657 70.2541 14.3111 70.5799 14.1329C70.9058 13.9548 71.2698 13.8657 71.672 13.8657C72.0741 13.8657 72.4382 13.9548 72.764 14.1329C73.0898 14.3111 73.3469 14.5657 73.5353 14.8966C73.7236 15.2275 73.8178 15.6068 73.8178 16.0344C73.8178 16.4621 73.7211 16.8413 73.5276 17.1723C73.3342 17.5032 73.0694 17.7603 72.7334 17.9435C72.4025 18.1217 72.036 18.2108 71.6338 18.2108ZM71.6338 17.4548C71.8578 17.4548 72.0665 17.4014 72.26 17.2944C72.4585 17.1875 72.6189 17.0272 72.7411 16.8133C72.8632 16.5995 72.9243 16.3399 72.9243 16.0344C72.9243 15.729 72.8658 15.4719 72.7487 15.2631C72.6316 15.0493 72.4763 14.889 72.2829 14.782C72.0894 14.6751 71.8807 14.6217 71.6567 14.6217C71.4327 14.6217 71.224 14.6751 71.0305 14.782C70.8421 14.889 70.6919 15.0493 70.5799 15.2631C70.4679 15.4719 70.4119 15.729 70.4119 16.0344C70.4119 16.4875 70.5265 16.8388 70.7556 17.0883C70.9898 17.3326 71.2825 17.4548 71.6338 17.4548ZM74.3882 16.0192C74.3882 15.5966 74.4748 15.2224 74.6479 14.8966C74.826 14.5708 75.0653 14.3188 75.3657 14.1406C75.6711 13.9573 76.0071 13.8657 76.3737 13.8657C76.7046 13.8657 76.9922 13.9319 77.2366 14.0642C77.4861 14.1915 77.6846 14.3519 77.8323 14.5453V13.9344H78.7105V18.1421H77.8323V17.5159C77.6846 17.7144 77.4835 17.8799 77.229 18.0123C76.9744 18.1446 76.6842 18.2108 76.3584 18.2108C75.997 18.2108 75.666 18.1192 75.3657 17.9359C75.0653 17.7475 74.826 17.4879 74.6479 17.157C74.4748 16.821 74.3882 16.4417 74.3882 16.0192ZM77.8323 16.0344C77.8323 15.7442 77.7712 15.4922 77.649 15.2784C77.5319 15.0646 77.3766 14.9017 77.1832 14.7897C76.9897 14.6777 76.781 14.6217 76.557 14.6217C76.333 14.6217 76.1242 14.6777 75.9308 14.7897C75.7373 14.8966 75.5795 15.057 75.4573 15.2708C75.3402 15.4795 75.2817 15.729 75.2817 16.0192C75.2817 16.3093 75.3402 16.5639 75.4573 16.7828C75.5795 17.0017 75.7373 17.1697 75.9308 17.2868C76.1293 17.3988 76.3381 17.4548 76.557 17.4548C76.781 17.4548 76.9897 17.3988 77.1832 17.2868C77.3766 17.1748 77.5319 17.0119 77.649 16.7981C77.7712 16.5792 77.8323 16.3246 77.8323 16.0344ZM79.5637 16.0192C79.5637 15.5966 79.6503 15.2224 79.8233 14.8966C80.0015 14.5708 80.2408 14.3188 80.5412 14.1406C80.8466 13.9573 81.1852 13.8657 81.5568 13.8657C81.8317 13.8657 82.1016 13.9268 82.3663 14.0489C82.6361 14.166 82.8499 14.3239 83.0078 14.5224V12.4911H83.8859V18.1421H83.0078V17.5083C82.8652 17.7119 82.6667 17.8799 82.4121 18.0123C82.1627 18.1446 81.875 18.2108 81.5492 18.2108C81.1826 18.2108 80.8466 18.1192 80.5412 17.9359C80.2408 17.7475 80.0015 17.4879 79.8233 17.157C79.6503 16.821 79.5637 16.4417 79.5637 16.0192ZM83.0078 16.0344C83.0078 15.7442 82.9467 15.4922 82.8245 15.2784C82.7074 15.0646 82.5521 14.9017 82.3587 14.7897C82.1652 14.6777 81.9565 14.6217 81.7325 14.6217C81.5085 14.6217 81.2997 14.6777 81.1063 14.7897C80.9128 14.8966 80.755 15.057 80.6328 15.2708C80.5157 15.4795 80.4572 15.729 80.4572 16.0192C80.4572 16.3093 80.5157 16.5639 80.6328 16.7828C80.755 17.0017 80.9128 17.1697 81.1063 17.2868C81.3048 17.3988 81.5136 17.4548 81.7325 17.4548C81.9565 17.4548 82.1652 17.3988 82.3587 17.2868C82.5521 17.1748 82.7074 17.0119 82.8245 16.7981C82.9467 16.5792 83.0078 16.3246 83.0078 16.0344ZM88.8382 18.2108C88.4411 18.2108 88.0822 18.1217 87.7615 17.9435C87.4407 17.7603 87.1887 17.5057 87.0054 17.1799C86.8222 16.849 86.7305 16.4672 86.7305 16.0344C86.7305 15.6068 86.8247 15.2275 87.0131 14.8966C87.2014 14.5657 87.4585 14.3111 87.7844 14.1329C88.1102 13.9548 88.4742 13.8657 88.8764 13.8657C89.2786 13.8657 89.6426 13.9548 89.9684 14.1329C90.2942 14.3111 90.5513 14.5657 90.7397 14.8966C90.928 15.2275 91.0222 15.6068 91.0222 16.0344C91.0222 16.4621 90.9255 16.8413 90.732 17.1723C90.5386 17.5032 90.2738 17.7603 89.9378 17.9435C89.6069 18.1217 89.2404 18.2108 88.8382 18.2108ZM88.8382 17.4548C89.0622 17.4548 89.2709 17.4014 89.4644 17.2944C89.6629 17.1875 89.8233 17.0272 89.9455 16.8133C90.0677 16.5995 90.1288 16.3399 90.1288 16.0344C90.1288 15.729 90.0702 15.4719 89.9531 15.2631C89.836 15.0493 89.6807 14.889 89.4873 14.782C89.2938 14.6751 89.0851 14.6217 88.8611 14.6217C88.6371 14.6217 88.4284 14.6751 88.2349 14.782C88.0465 14.889 87.8964 15.0493 87.7844 15.2631C87.6724 15.4719 87.6164 15.729 87.6164 16.0344C87.6164 16.4875 87.7309 16.8388 87.96 17.0883C88.1942 17.3326 88.4869 17.4548 88.8382 17.4548ZM94.0058 13.8657C94.3367 13.8657 94.6319 13.9344 94.8916 14.0719C95.1563 14.2093 95.3625 14.4129 95.5101 14.6828C95.6578 14.9526 95.7316 15.2784 95.7316 15.6602V18.1421H94.8687V15.7901C94.8687 15.4133 94.7745 15.1257 94.5861 14.9271C94.3978 14.7235 94.1407 14.6217 93.8148 14.6217C93.489 14.6217 93.2294 14.7235 93.0359 14.9271C92.8476 15.1257 92.7534 15.4133 92.7534 15.7901V18.1421H91.8828V13.9344H92.7534V14.4155C92.8959 14.2424 93.0767 14.1075 93.2956 14.0108C93.5196 13.914 93.7563 13.8657 94.0058 13.8657ZM99.8414 14.6446V16.9737C99.8414 17.1315 99.877 17.2461 99.9483 17.3174C100.025 17.3835 100.152 17.4166 100.33 17.4166H100.865V18.1421H100.177C99.7854 18.1421 99.485 18.0505 99.2763 17.8672C99.0676 17.6839 98.9632 17.3861 98.9632 16.9737V14.6446H98.4668V13.9344H98.9632V12.8882H99.8414V13.9344H100.865V14.6446H99.8414ZM103.843 13.8657C104.164 13.8657 104.449 13.9344 104.699 14.0719C104.953 14.2093 105.152 14.4129 105.294 14.6828C105.442 14.9526 105.516 15.2784 105.516 15.6602V18.1421H104.653V15.7901C104.653 15.4133 104.559 15.1257 104.37 14.9271C104.182 14.7235 103.925 14.6217 103.599 14.6217C103.273 14.6217 103.014 14.7235 102.82 14.9271C102.632 15.1257 102.538 15.4133 102.538 15.7901V18.1421H101.667V12.4911H102.538V14.4231C102.685 14.2449 102.871 14.1075 103.095 14.0108C103.324 13.914 103.574 13.8657 103.843 13.8657ZM110.483 15.9352C110.483 16.093 110.472 16.2355 110.452 16.3628H107.237C107.263 16.6988 107.387 16.9686 107.611 17.1723C107.835 17.3759 108.11 17.4777 108.436 17.4777C108.904 17.4777 109.235 17.2817 109.429 16.8897H110.368C110.241 17.2766 110.009 17.5948 109.673 17.8443C109.342 18.0886 108.93 18.2108 108.436 18.2108C108.034 18.2108 107.672 18.1217 107.352 17.9435C107.036 17.7603 106.787 17.5057 106.603 17.1799C106.425 16.849 106.336 16.4672 106.336 16.0344C106.336 15.6017 106.423 15.2224 106.596 14.8966C106.774 14.5657 107.021 14.3111 107.336 14.1329C107.657 13.9548 108.024 13.8657 108.436 13.8657C108.833 13.8657 109.187 13.9522 109.498 14.1253C109.808 14.2984 110.05 14.5428 110.223 14.8584C110.396 15.169 110.483 15.5279 110.483 15.9352ZM109.574 15.6602C109.569 15.3395 109.454 15.0824 109.23 14.889C109.006 14.6955 108.729 14.5988 108.398 14.5988C108.098 14.5988 107.84 14.6955 107.627 14.889C107.413 15.0773 107.286 15.3344 107.245 15.6602H109.574Z" fill="#BC172F"/>
<path d="M52.0033 34.0858H48.465L47.8796 35.7786H46.0086L49.2032 26.8821H51.2778L54.4724 35.7786H52.5887L52.0033 34.0858ZM51.5196 32.6603L50.2342 28.9439L48.9487 32.6603H51.5196ZM57.4483 29.7458C57.6774 29.4233 57.9914 29.1561 58.3902 28.9439C58.7974 28.7233 59.2599 28.613 59.7774 28.613C60.3799 28.613 60.9229 28.7615 61.4066 29.0585C61.8987 29.3555 62.2848 29.7797 62.5648 30.3312C62.8532 30.8743 62.9975 31.5064 62.9975 32.2276C62.9975 32.9488 62.8532 33.5894 62.5648 34.1495C62.2848 34.701 61.8987 35.1295 61.4066 35.4349C60.9229 35.7404 60.3799 35.8931 59.7774 35.8931C59.2599 35.8931 58.8017 35.787 58.4029 35.5749C58.0126 35.3628 57.6944 35.0955 57.4483 34.7731V39.1386H55.6665V28.7276H57.4483V29.7458ZM61.1775 32.2276C61.1775 31.8034 61.0884 31.4385 60.9102 31.133C60.7405 30.8191 60.5114 30.5815 60.2229 30.4203C59.9429 30.2591 59.6374 30.1785 59.3065 30.1785C58.9841 30.1785 58.6786 30.2633 58.3902 30.433C58.1102 30.5943 57.8811 30.8318 57.7029 31.1458C57.5332 31.4597 57.4483 31.8288 57.4483 32.2531C57.4483 32.6773 57.5332 33.0464 57.7029 33.3604C57.8811 33.6743 58.1102 33.9161 58.3902 34.0858C58.6786 34.247 58.9841 34.3276 59.3065 34.3276C59.6374 34.3276 59.9429 34.2428 60.2229 34.0731C60.5114 33.9034 60.7405 33.6616 60.9102 33.3476C61.0884 33.0337 61.1775 32.6603 61.1775 32.2276ZM66.0742 29.7458C66.3032 29.4233 66.6172 29.1561 67.016 28.9439C67.4233 28.7233 67.8857 28.613 68.4033 28.613C69.0057 28.613 69.5487 28.7615 70.0324 29.0585C70.5245 29.3555 70.9106 29.7797 71.1906 30.3312C71.4791 30.8743 71.6233 31.5064 71.6233 32.2276C71.6233 32.9488 71.4791 33.5894 71.1906 34.1495C70.9106 34.701 70.5245 35.1295 70.0324 35.4349C69.5487 35.7404 69.0057 35.8931 68.4033 35.8931C67.8857 35.8931 67.4275 35.787 67.0287 35.5749C66.6384 35.3628 66.3202 35.0955 66.0742 34.7731V39.1386H64.2923V28.7276H66.0742V29.7458ZM69.8033 32.2276C69.8033 31.8034 69.7142 31.4385 69.536 31.133C69.3663 30.8191 69.1372 30.5815 68.8487 30.4203C68.5687 30.2591 68.2633 30.1785 67.9324 30.1785C67.6099 30.1785 67.3045 30.2633 67.016 30.433C66.736 30.5943 66.5069 30.8318 66.3287 31.1458C66.159 31.4597 66.0742 31.8288 66.0742 32.2531C66.0742 32.6773 66.159 33.0464 66.3287 33.3604C66.5069 33.6743 66.736 33.9161 67.016 34.0858C67.3045 34.247 67.6099 34.3276 67.9324 34.3276C68.2633 34.3276 68.5687 34.2428 68.8487 34.0731C69.1372 33.9034 69.3663 33.6616 69.536 33.3476C69.7142 33.0337 69.8033 32.6603 69.8033 32.2276ZM79.0182 35.8677C78.3988 35.8677 77.8387 35.7616 77.3381 35.5495C76.846 35.3373 76.4557 35.0319 76.1672 34.6331C75.8787 34.2343 75.7302 33.7634 75.7217 33.2203H77.6309C77.6563 33.5852 77.7836 33.8737 78.0127 34.0858C78.2503 34.2979 78.5727 34.404 78.98 34.404C79.3957 34.404 79.7224 34.3064 79.96 34.1113C80.1976 33.9076 80.3164 33.6446 80.3164 33.3222C80.3164 33.0591 80.2357 32.8428 80.0745 32.6731C79.9133 32.5034 79.7097 32.3719 79.4636 32.2785C79.226 32.1767 78.8951 32.0664 78.4709 31.9476C77.8939 31.7779 77.423 31.6124 77.0581 31.4512C76.7018 31.2815 76.3921 31.0312 76.129 30.7003C75.8745 30.3609 75.7472 29.9112 75.7472 29.3512C75.7472 28.8251 75.8787 28.367 76.1418 27.9766C76.4048 27.5863 76.7739 27.2894 77.249 27.0857C77.7242 26.8736 78.2672 26.7675 78.8782 26.7675C79.7945 26.7675 80.537 26.9924 81.1055 27.4421C81.6824 27.8833 82.0006 28.5027 82.06 29.3003H80.1C80.083 28.9948 79.9515 28.7445 79.7054 28.5494C79.4679 28.3457 79.1497 28.2439 78.7509 28.2439C78.403 28.2439 78.123 28.333 77.9109 28.5112C77.7072 28.6894 77.6054 28.9482 77.6054 29.2876C77.6054 29.5251 77.6818 29.7245 77.8345 29.8858C77.9957 30.0385 78.1909 30.1658 78.42 30.2676C78.6575 30.3609 78.9885 30.4712 79.4127 30.5985C79.9897 30.7682 80.4606 30.9379 80.8254 31.1076C81.1903 31.2773 81.5042 31.5318 81.7673 31.8712C82.0303 32.2106 82.1618 32.6561 82.1618 33.2076C82.1618 33.6828 82.0388 34.124 81.7927 34.5313C81.5467 34.9386 81.1861 35.2652 80.7109 35.5113C80.2357 35.7489 79.6715 35.8677 79.0182 35.8677ZM85.7812 30.1912V33.6022C85.7812 33.8398 85.8363 34.0137 85.9467 34.124C86.0654 34.2258 86.2606 34.2767 86.5321 34.2767H87.3594V35.7786H86.2394C84.7375 35.7786 83.9866 35.0489 83.9866 33.5894V30.1912H83.1466V28.7276H83.9866V26.9839H85.7812V28.7276H87.3594V30.1912H85.7812ZM91.7719 35.8931C91.0931 35.8931 90.4822 35.7446 89.9392 35.4477C89.3962 35.1422 88.9677 34.7137 88.6537 34.1622C88.3483 33.6107 88.1955 32.9743 88.1955 32.2531C88.1955 31.5318 88.3525 30.8955 88.6664 30.3439C88.9889 29.7924 89.4259 29.3682 89.9774 29.0712C90.5289 28.7657 91.1441 28.613 91.8229 28.613C92.5016 28.613 93.1168 28.7657 93.6683 29.0712C94.2199 29.3682 94.6526 29.7924 94.9665 30.3439C95.289 30.8955 95.4502 31.5318 95.4502 32.2531C95.4502 32.9743 95.2847 33.6107 94.9538 34.1622C94.6314 34.7137 94.1902 35.1422 93.6301 35.4477C93.0786 35.7446 92.4592 35.8931 91.7719 35.8931ZM91.7719 34.3404C92.0944 34.3404 92.3956 34.264 92.6756 34.1113C92.9641 33.9501 93.1932 33.7125 93.3629 33.3985C93.5326 33.0846 93.6174 32.7028 93.6174 32.2531C93.6174 31.5828 93.4392 31.0694 93.0829 30.713C92.735 30.3482 92.3065 30.1658 91.7974 30.1658C91.2883 30.1658 90.8598 30.3482 90.5119 30.713C90.1725 31.0694 90.0028 31.5828 90.0028 32.2531C90.0028 32.9234 90.1683 33.441 90.4992 33.8058C90.8386 34.1622 91.2628 34.3404 91.7719 34.3404ZM98.5391 29.8221C98.7682 29.4488 99.0651 29.1561 99.43 28.9439C99.8033 28.7318 100.228 28.6257 100.703 28.6257V30.4967H100.232C99.6718 30.4967 99.2476 30.6282 98.9591 30.8912C98.6791 31.1543 98.5391 31.6124 98.5391 32.2658V35.7786H96.7572V28.7276H98.5391V29.8221ZM108.458 32.1003C108.458 32.3549 108.441 32.584 108.407 32.7876H103.252C103.294 33.2967 103.473 33.6955 103.787 33.984C104.1 34.2725 104.487 34.4167 104.945 34.4167C105.607 34.4167 106.077 34.1325 106.357 33.564H108.279C108.076 34.2428 107.685 34.8028 107.108 35.244C106.531 35.6767 105.823 35.8931 104.983 35.8931C104.304 35.8931 103.693 35.7446 103.15 35.4477C102.616 35.1422 102.196 34.7137 101.89 34.1622C101.593 33.6107 101.445 32.9743 101.445 32.2531C101.445 31.5234 101.593 30.8827 101.89 30.3312C102.187 29.7797 102.603 29.3555 103.137 29.0585C103.672 28.7615 104.287 28.613 104.983 28.613C105.653 28.613 106.251 28.7573 106.777 29.0457C107.312 29.3342 107.724 29.7458 108.012 30.2803C108.309 30.8064 108.458 31.4131 108.458 32.1003ZM106.612 31.5912C106.604 31.133 106.438 30.7682 106.116 30.4967C105.793 30.2167 105.399 30.0767 104.932 30.0767C104.491 30.0767 104.117 30.2124 103.812 30.484C103.515 30.747 103.333 31.1161 103.265 31.5912H106.612Z" fill="#BC172F"/>
</svg>
