<svg width="19" height="15" viewBox="0 0 19 15" fill="none" xmlns="http://www.w3.org/2000/svg">
<path d="M15.8776 2.04968C14.7493 1.52372 13.5278 1.14199 12.2553 0.921426C12.2441 0.921069 12.233 0.923163 12.2228 0.92756C12.2125 0.931957 12.2033 0.93855 12.1959 0.946875C12.0432 1.22682 11.8651 1.59159 11.7463 1.87153C10.3966 1.66794 9.02409 1.66794 7.67443 1.87153C7.55566 1.58311 7.37752 1.22682 7.21634 0.946875C7.20786 0.929909 7.18241 0.921426 7.15696 0.921426C5.8845 1.14199 4.67142 1.52372 3.53468 2.04968C3.5262 2.04968 3.51772 2.05816 3.50923 2.06664C1.20184 5.51926 0.565604 8.87856 0.879478 12.2039C0.879478 12.2209 0.887961 12.2379 0.904927 12.2463C2.43188 13.3661 3.89946 14.0448 5.35006 14.4944C5.37551 14.5028 5.40096 14.4944 5.40944 14.4774C5.74877 14.0108 6.05416 13.5188 6.31713 13.0013C6.3341 12.9674 6.31713 12.9335 6.2832 12.925C5.79967 12.7384 5.34158 12.5178 4.89198 12.2633C4.85804 12.2463 4.85804 12.1954 4.88349 12.17C4.97681 12.1021 5.07012 12.0258 5.16343 11.9579C5.1804 11.941 5.20585 11.941 5.22282 11.9494C8.141 13.2813 11.2882 13.2813 14.1725 11.9494C14.1894 11.941 14.2149 11.941 14.2319 11.9579C14.3252 12.0343 14.4185 12.1021 14.5118 12.1785C14.5457 12.2039 14.5457 12.2548 14.5033 12.2718C14.0622 12.5348 13.5956 12.7468 13.1121 12.9335C13.0782 12.942 13.0697 12.9844 13.0782 13.0098C13.3496 13.5273 13.655 14.0193 13.9858 14.4859C14.0113 14.4944 14.0367 14.5028 14.0622 14.4944C15.5213 14.0448 16.9889 13.3661 18.5158 12.2463C18.5328 12.2379 18.5413 12.2209 18.5413 12.2039C18.9145 8.36109 17.922 5.02724 15.9115 2.06664C15.903 2.05816 15.8945 2.04968 15.8776 2.04968ZM6.75826 10.1765C5.8845 10.1765 5.15495 9.37058 5.15495 8.37806C5.15495 7.38553 5.86753 6.57964 6.75826 6.57964C7.65746 6.57964 8.37004 7.39402 8.36156 8.37806C8.36156 9.37058 7.64898 10.1765 6.75826 10.1765ZM12.671 10.1765C11.7972 10.1765 11.0677 9.37058 11.0677 8.37806C11.0677 7.38553 11.7802 6.57964 12.671 6.57964C13.5702 6.57964 14.2827 7.39402 14.2743 8.37806C14.2743 9.37058 13.5702 10.1765 12.671 10.1765Z" fill="white"/>
</svg>
