<svg width="123" height="51" viewBox="0 0 123 51" fill="none" xmlns="http://www.w3.org/2000/svg">
<rect x="0.888672" width="122.074" height="50.9207" rx="4.05687" fill="white"/>
<g clip-path="url(#clip0_2245_22093)">
<path d="M25.5756 28.686C28.0758 27.3132 29.9712 26.2671 30.1346 26.1857C30.6572 25.9078 31.1969 25.1722 30.1346 24.6008C29.7916 24.4211 27.9449 23.4076 25.5756 22.1006L22.291 25.4177L25.5756 28.6859V28.686Z" fill="#FFD900"/>
<path d="M22.2904 25.418L11.832 35.9584C12.0775 35.9909 12.3547 35.9258 12.6814 35.7462C13.3674 35.3707 20.6396 31.3993 25.5749 28.687L22.2904 25.418Z" fill="#F43249"/>
<path d="M22.291 25.4179L25.5756 22.1171C25.5756 22.1171 13.4176 15.482 12.682 15.0904C12.4049 14.9262 12.0943 14.8775 11.8164 14.9262L22.291 25.4179Z" fill="#00EE76"/>
<path d="M22.2902 25.4177L11.8156 14.926C11.3905 15.0243 11.0312 15.3999 11.0312 16.168V34.7162C11.0312 35.4192 11.3092 35.9256 11.8319 35.9744L22.2902 25.4177Z" fill="#00D3FF"/>
</g>
<path d="M40.2342 14.362C40.0967 14.0973 39.9058 13.8988 39.6615 13.7664C39.4171 13.6289 39.1345 13.5602 38.8138 13.5602C38.4625 13.5602 38.1494 13.6391 37.8745 13.7969C37.5996 13.9548 37.3832 14.1788 37.2254 14.469C37.0727 14.7591 36.9963 15.0951 36.9963 15.477C36.9963 15.8588 37.0727 16.1973 37.2254 16.4926C37.3832 16.7828 37.5996 17.0068 37.8745 17.1646C38.1494 17.3224 38.4625 17.4014 38.8138 17.4014C39.2873 17.4014 39.6716 17.269 39.9669 17.0043C40.2622 16.7395 40.4429 16.3806 40.5091 15.9275H38.516V15.2326H41.4408V15.9122C41.3847 16.3246 41.2371 16.7039 40.9978 17.0501C40.7637 17.3963 40.4556 17.6737 40.0738 17.8825C39.6971 18.0861 39.2771 18.1879 38.8138 18.1879C38.3149 18.1879 37.8592 18.0734 37.4469 17.8443C37.0345 17.6101 36.7061 17.2868 36.4618 16.8744C36.2225 16.4621 36.1029 15.9962 36.1029 15.477C36.1029 14.9577 36.2225 14.4919 36.4618 14.0795C36.7061 13.6671 37.0345 13.3464 37.4469 13.1173C37.8643 12.8831 38.32 12.766 38.8138 12.766C39.3789 12.766 39.8804 12.906 40.3182 13.186C40.7611 13.4609 41.0818 13.8529 41.2804 14.362H40.2342ZM46.1558 15.9352C46.1558 16.093 46.1456 16.2355 46.1252 16.3628H42.9103C42.9357 16.6988 43.0605 16.9686 43.2845 17.1723C43.5085 17.3759 43.7834 17.4777 44.1092 17.4777C44.5776 17.4777 44.9085 17.2817 45.102 16.8897H46.0412C45.914 17.2766 45.6823 17.5948 45.3463 17.8443C45.0154 18.0886 44.603 18.2108 44.1092 18.2108C43.707 18.2108 43.3456 18.1217 43.0248 17.9435C42.7092 17.7603 42.4597 17.5057 42.2765 17.1799C42.0983 16.849 42.0092 16.4672 42.0092 16.0344C42.0092 15.6017 42.0957 15.2224 42.2688 14.8966C42.447 14.5657 42.6939 14.3111 43.0096 14.1329C43.3303 13.9548 43.6968 13.8657 44.1092 13.8657C44.5063 13.8657 44.8601 13.9522 45.1707 14.1253C45.4812 14.2984 45.7231 14.5428 45.8961 14.8584C46.0692 15.169 46.1558 15.5279 46.1558 15.9352ZM45.247 15.6602C45.242 15.3395 45.1274 15.0824 44.9034 14.889C44.6794 14.6955 44.4019 14.5988 44.071 14.5988C43.7707 14.5988 43.5136 14.6955 43.2998 14.889C43.0859 15.0773 42.9587 15.3344 42.9179 15.6602H45.247ZM48.0282 14.6446V16.9737C48.0282 17.1315 48.0638 17.2461 48.1351 17.3174C48.2114 17.3835 48.3387 17.4166 48.5169 17.4166H49.0514V18.1421H48.3642C47.9722 18.1421 47.6718 18.0505 47.4631 17.8672C47.2543 17.6839 47.15 17.3861 47.15 16.9737V14.6446H46.6536V13.9344H47.15V12.8882H48.0282V13.9344H49.0514V14.6446H48.0282ZM52.2804 13.3769C52.1226 13.3769 51.9902 13.3235 51.8833 13.2166C51.7764 13.1097 51.7229 12.9773 51.7229 12.8195C51.7229 12.6617 51.7764 12.5293 51.8833 12.4224C51.9902 12.3155 52.1226 12.262 52.2804 12.262C52.4331 12.262 52.563 12.3155 52.6699 12.4224C52.7768 12.5293 52.8302 12.6617 52.8302 12.8195C52.8302 12.9773 52.7768 13.1097 52.6699 13.2166C52.563 13.3235 52.4331 13.3769 52.2804 13.3769ZM52.7081 13.9344V18.1421H51.8375V13.9344H52.7081ZM54.8667 14.6446V16.9737C54.8667 17.1315 54.9023 17.2461 54.9736 17.3174C55.0499 17.3835 55.1772 17.4166 55.3554 17.4166H55.89V18.1421H55.2027C54.8107 18.1421 54.5103 18.0505 54.3016 17.8672C54.0928 17.6839 53.9885 17.3861 53.9885 16.9737V14.6446H53.4921V13.9344H53.9885V12.8882H54.8667V13.9344H55.89V14.6446H54.8667ZM60.5011 18.2108C60.104 18.2108 59.7451 18.1217 59.4244 17.9435C59.1037 17.7603 58.8516 17.5057 58.6684 17.1799C58.4851 16.849 58.3935 16.4672 58.3935 16.0344C58.3935 15.6068 58.4876 15.2275 58.676 14.8966C58.8644 14.5657 59.1215 14.3111 59.4473 14.1329C59.7731 13.9548 60.1371 13.8657 60.5393 13.8657C60.9415 13.8657 61.3055 13.9548 61.6313 14.1329C61.9571 14.3111 62.2142 14.5657 62.4026 14.8966C62.591 15.2275 62.6852 15.6068 62.6852 16.0344C62.6852 16.4621 62.5884 16.8413 62.395 17.1723C62.2015 17.5032 61.9368 17.7603 61.6008 17.9435C61.2699 18.1217 60.9033 18.2108 60.5011 18.2108ZM60.5011 17.4548C60.7251 17.4548 60.9339 17.4014 61.1273 17.2944C61.3259 17.1875 61.4862 17.0272 61.6084 16.8133C61.7306 16.5995 61.7917 16.3399 61.7917 16.0344C61.7917 15.729 61.7331 15.4719 61.616 15.2631C61.499 15.0493 61.3437 14.889 61.1502 14.782C60.9568 14.6751 60.748 14.6217 60.524 14.6217C60.3 14.6217 60.0913 14.6751 59.8978 14.782C59.7095 14.889 59.5593 15.0493 59.4473 15.2631C59.3353 15.4719 59.2793 15.729 59.2793 16.0344C59.2793 16.4875 59.3938 16.8388 59.6229 17.0883C59.8571 17.3326 60.1498 17.4548 60.5011 17.4548ZM65.6687 13.8657C65.9996 13.8657 66.2949 13.9344 66.5545 14.0719C66.8192 14.2093 67.0254 14.4129 67.1731 14.6828C67.3207 14.9526 67.3945 15.2784 67.3945 15.6602V18.1421H66.5316V15.7901C66.5316 15.4133 66.4374 15.1257 66.2491 14.9271C66.0607 14.7235 65.8036 14.6217 65.4778 14.6217C65.1519 14.6217 64.8923 14.7235 64.6989 14.9271C64.5105 15.1257 64.4163 15.4133 64.4163 15.7901V18.1421H63.5457V13.9344H64.4163V14.4155C64.5589 14.2424 64.7396 14.1075 64.9585 14.0108C65.1825 13.914 65.4192 13.8657 65.6687 13.8657Z" fill="#BC172F"/>
<path d="M42.884 29.5676C42.6804 29.1942 42.4004 28.91 42.044 28.7148C41.6877 28.5197 41.2719 28.4221 40.7967 28.4221C40.2707 28.4221 39.804 28.5409 39.3967 28.7785C38.9894 29.0161 38.6713 29.3555 38.4422 29.7967C38.2131 30.2379 38.0985 30.747 38.0985 31.324C38.0985 31.9179 38.2131 32.4355 38.4422 32.8767C38.6797 33.3179 39.0064 33.6573 39.4222 33.8949C39.8379 34.1325 40.3216 34.2513 40.8731 34.2513C41.5519 34.2513 42.1077 34.0731 42.5404 33.7167C42.9731 33.3519 43.2574 32.847 43.3931 32.2022H40.3386V30.8403H45.1495V32.3931C45.0307 33.0125 44.7762 33.5852 44.3859 34.1113C43.9956 34.6373 43.4907 35.0616 42.8713 35.384C42.2604 35.698 41.5731 35.8549 40.8095 35.8549C39.9525 35.8549 39.1761 35.664 38.4803 35.2822C37.7931 34.8919 37.25 34.3531 36.8512 33.6658C36.4609 32.9785 36.2658 32.1979 36.2658 31.324C36.2658 30.45 36.4609 29.6694 36.8512 28.9821C37.25 28.2863 37.7931 27.7476 38.4803 27.3657C39.1761 26.9754 39.9482 26.7803 40.7967 26.7803C41.798 26.7803 42.6677 27.0263 43.4059 27.5185C44.1441 28.0021 44.6532 28.6851 44.9332 29.5676H42.884ZM49.5988 35.8931C48.92 35.8931 48.309 35.7446 47.766 35.4477C47.223 35.1422 46.7945 34.7137 46.4805 34.1622C46.1751 33.6107 46.0223 32.9743 46.0223 32.2531C46.0223 31.5318 46.1793 30.8955 46.4933 30.3439C46.8157 29.7924 47.2527 29.3682 47.8042 29.0712C48.3557 28.7657 48.9709 28.613 49.6497 28.613C50.3285 28.613 50.9436 28.7657 51.4951 29.0712C52.0467 29.3682 52.4794 29.7924 52.7933 30.3439C53.1158 30.8955 53.277 31.5318 53.277 32.2531C53.277 32.9743 53.1115 33.6107 52.7806 34.1622C52.4582 34.7137 52.017 35.1422 51.457 35.4477C50.9054 35.7446 50.286 35.8931 49.5988 35.8931ZM49.5988 34.3404C49.9212 34.3404 50.2224 34.264 50.5024 34.1113C50.7909 33.9501 51.02 33.7125 51.1897 33.3985C51.3594 33.0846 51.4442 32.7028 51.4442 32.2531C51.4442 31.5828 51.2661 31.0694 50.9097 30.713C50.5618 30.3482 50.1333 30.1658 49.6242 30.1658C49.1151 30.1658 48.6866 30.3482 48.3387 30.713C47.9993 31.0694 47.8296 31.5828 47.8296 32.2531C47.8296 32.9234 47.9951 33.441 48.326 33.8058C48.6654 34.1622 49.0897 34.3404 49.5988 34.3404ZM57.715 35.8931C57.0362 35.8931 56.4253 35.7446 55.8822 35.4477C55.3392 35.1422 54.9107 34.7137 54.5968 34.1622C54.2913 33.6107 54.1386 32.9743 54.1386 32.2531C54.1386 31.5318 54.2955 30.8955 54.6095 30.3439C54.9319 29.7924 55.3689 29.3682 55.9204 29.0712C56.4719 28.7657 57.0871 28.613 57.7659 28.613C58.4447 28.613 59.0599 28.7657 59.6114 29.0712C60.1629 29.3682 60.5956 29.7924 60.9096 30.3439C61.232 30.8955 61.3932 31.5318 61.3932 32.2531C61.3932 32.9743 61.2278 33.6107 60.8968 34.1622C60.5744 34.7137 60.1332 35.1422 59.5732 35.4477C59.0217 35.7446 58.4023 35.8931 57.715 35.8931ZM57.715 34.3404C58.0374 34.3404 58.3386 34.264 58.6186 34.1113C58.9071 33.9501 59.1362 33.7125 59.3059 33.3985C59.4756 33.0846 59.5605 32.7028 59.5605 32.2531C59.5605 31.5828 59.3823 31.0694 59.0259 30.713C58.678 30.3482 58.2495 30.1658 57.7404 30.1658C57.2313 30.1658 56.8029 30.3482 56.455 30.713C56.1156 31.0694 55.9459 31.5828 55.9459 32.2531C55.9459 32.9234 56.1113 33.441 56.4422 33.8058C56.7816 34.1622 57.2059 34.3404 57.715 34.3404ZM65.4621 28.613C65.9882 28.613 66.4506 28.7191 66.8494 28.9312C67.2482 29.1348 67.5621 29.4021 67.7912 29.733V28.7276H69.5858V35.8295C69.5858 36.4828 69.4543 37.064 69.1913 37.5731C68.9282 38.0907 68.5337 38.498 68.0076 38.795C67.4815 39.1004 66.8452 39.2532 66.0985 39.2532C65.0973 39.2532 64.2742 39.0198 63.6294 38.5531C62.993 38.0865 62.6324 37.4501 62.5475 36.644H64.3166C64.41 36.9665 64.6094 37.221 64.9148 37.4077C65.2288 37.6028 65.6064 37.7004 66.0476 37.7004C66.5652 37.7004 66.9852 37.5434 67.3076 37.2295C67.63 36.924 67.7912 36.4574 67.7912 35.8295V34.7349C67.5621 35.0658 67.244 35.3416 66.8367 35.5622C66.4379 35.7828 65.9797 35.8931 65.4621 35.8931C64.8682 35.8931 64.3251 35.7404 63.833 35.4349C63.3409 35.1295 62.9506 34.701 62.6621 34.1495C62.3821 33.5894 62.2421 32.9488 62.2421 32.2276C62.2421 31.5149 62.3821 30.8827 62.6621 30.3312C62.9506 29.7797 63.3366 29.3555 63.8203 29.0585C64.3124 28.7615 64.8597 28.613 65.4621 28.613ZM67.7912 32.2531C67.7912 31.8203 67.7064 31.4512 67.5367 31.1458C67.367 30.8318 67.1379 30.5943 66.8494 30.433C66.5609 30.2633 66.2512 30.1785 65.9203 30.1785C65.5894 30.1785 65.2839 30.2591 65.0039 30.4203C64.7239 30.5815 64.4948 30.8191 64.3166 31.133C64.1469 31.4385 64.0621 31.8034 64.0621 32.2276C64.0621 32.6519 64.1469 33.0252 64.3166 33.3476C64.4948 33.6616 64.7239 33.9034 65.0039 34.0731C65.2924 34.2428 65.5979 34.3276 65.9203 34.3276C66.2512 34.3276 66.5609 34.247 66.8494 34.0858C67.1379 33.9161 67.367 33.6785 67.5367 33.3731C67.7064 33.0591 67.7912 32.6858 67.7912 32.2531ZM73.1079 26.3603V35.7786H71.3261V26.3603H73.1079ZM81.423 32.1003C81.423 32.3549 81.4061 32.584 81.3721 32.7876H76.2175C76.2599 33.2967 76.4381 33.6955 76.7521 33.984C77.066 34.2725 77.4521 34.4167 77.9102 34.4167C78.5721 34.4167 79.043 34.1325 79.323 33.564H81.2448C81.0412 34.2428 80.6509 34.8028 80.0739 35.244C79.4969 35.6767 78.7884 35.8931 77.9484 35.8931C77.2696 35.8931 76.6587 35.7446 76.1157 35.4477C75.5811 35.1422 75.1611 34.7137 74.8557 34.1622C74.5587 33.6107 74.4102 32.9743 74.4102 32.2531C74.4102 31.5234 74.5587 30.8827 74.8557 30.3312C75.1526 29.7797 75.5684 29.3555 76.103 29.0585C76.6375 28.7615 77.2527 28.613 77.9484 28.613C78.6187 28.613 79.2169 28.7573 79.743 29.0457C80.2776 29.3342 80.6891 29.7458 80.9776 30.2803C81.2745 30.8064 81.423 31.4131 81.423 32.1003ZM79.5775 31.5912C79.5691 31.133 79.4036 30.7682 79.0812 30.4967C78.7587 30.2167 78.3642 30.0767 77.8975 30.0767C77.4563 30.0767 77.083 30.2124 76.7775 30.484C76.4805 30.747 76.2981 31.1161 76.2302 31.5912H79.5775ZM92.2346 29.6439C92.2346 30.1191 92.12 30.5646 91.8909 30.9803C91.6703 31.3961 91.3182 31.7312 90.8346 31.9858C90.3594 32.2403 89.757 32.3676 89.0273 32.3676H87.5382V35.7786H85.7563V26.8948H89.0273C89.7145 26.8948 90.3 27.0136 90.7837 27.2512C91.2673 27.4888 91.6279 27.8154 91.8655 28.2312C92.1115 28.647 92.2346 29.1179 92.2346 29.6439ZM88.9509 30.9294C89.443 30.9294 89.8079 30.8191 90.0455 30.5985C90.283 30.3694 90.4018 30.0512 90.4018 29.6439C90.4018 28.7785 89.9182 28.3457 88.9509 28.3457H87.5382V30.9294H88.9509ZM95.2815 26.3603V35.7786H93.4997V26.3603H95.2815ZM96.5838 32.2276C96.5838 31.5149 96.7238 30.8827 97.0038 30.3312C97.2923 29.7797 97.6783 29.3555 98.162 29.0585C98.6541 28.7615 99.2014 28.613 99.8038 28.613C100.33 28.613 100.788 28.7191 101.178 28.9312C101.577 29.1433 101.895 29.4106 102.133 29.733V28.7276H103.928V35.7786H102.133V34.7476C101.904 35.0786 101.586 35.3543 101.178 35.5749C100.78 35.787 100.317 35.8931 99.7911 35.8931C99.1972 35.8931 98.6541 35.7404 98.162 35.4349C97.6783 35.1295 97.2923 34.701 97.0038 34.1495C96.7238 33.5894 96.5838 32.9488 96.5838 32.2276ZM102.133 32.2531C102.133 31.8203 102.048 31.4512 101.878 31.1458C101.709 30.8318 101.48 30.5943 101.191 30.433C100.903 30.2633 100.593 30.1785 100.262 30.1785C99.9311 30.1785 99.6256 30.2591 99.3456 30.4203C99.0656 30.5815 98.8365 30.8191 98.6584 31.133C98.4887 31.4385 98.4038 31.8034 98.4038 32.2276C98.4038 32.6519 98.4887 33.0252 98.6584 33.3476C98.8365 33.6616 99.0656 33.9034 99.3456 34.0731C99.6341 34.2428 99.9396 34.3276 100.262 34.3276C100.593 34.3276 100.903 34.247 101.191 34.0858C101.48 33.9161 101.709 33.6785 101.878 33.3731C102.048 33.0591 102.133 32.6858 102.133 32.2531ZM112.413 28.7276L108.048 39.1132H106.151L107.679 35.6004L104.853 28.7276H106.851L108.671 33.6531L110.517 28.7276H112.413Z" fill="#BC172F"/>
<defs>
<clipPath id="clip0_2245_22093">
<rect width="19.7186" height="21.1051" fill="white" transform="translate(11.0312 14.9077)"/>
</clipPath>
</defs>
</svg>
