<svg width="17" height="17" viewBox="0 0 17 17" fill="none" xmlns="http://www.w3.org/2000/svg">
<path fill-rule="evenodd" clip-rule="evenodd" d="M4.1189 0.876969C7.06756 0.550125 10.0433 0.550125 12.992 0.876969C14.6029 1.05681 15.9016 2.32499 16.0908 3.94183C16.4404 6.93174 16.4404 9.95223 16.0908 12.9421C15.9016 14.559 14.6029 15.8272 12.9928 16.0079C10.0439 16.3348 7.06784 16.3348 4.1189 16.0079C2.508 15.8272 1.20927 14.559 1.02011 12.943C0.670381 9.9528 0.670381 6.93202 1.02011 3.94183C1.20927 2.32499 2.508 1.05681 4.1189 0.876969ZM12.7969 3.35227C12.5719 3.35227 12.3561 3.44164 12.197 3.60073C12.0379 3.75981 11.9486 3.97558 11.9486 4.20055C11.9486 4.42553 12.0379 4.6413 12.197 4.80038C12.3561 4.95947 12.5719 5.04884 12.7969 5.04884C13.0218 5.04884 13.2376 4.95947 13.3967 4.80038C13.5558 4.6413 13.6452 4.42553 13.6452 4.20055C13.6452 3.97558 13.5558 3.75981 13.3967 3.60073C13.2376 3.44164 13.0218 3.35227 12.7969 3.35227ZM4.52607 8.44199C4.52607 7.37333 4.95059 6.34845 5.70625 5.5928C6.4619 4.83715 7.48678 4.41263 8.55543 4.41263C9.62409 4.41263 10.649 4.83715 11.4046 5.5928C12.1603 6.34845 12.5848 7.37333 12.5848 8.44199C12.5848 9.51064 12.1603 10.5355 11.4046 11.2912C10.649 12.0468 9.62409 12.4713 8.55543 12.4713C7.48678 12.4713 6.4619 12.0468 5.70625 11.2912C4.95059 10.5355 4.52607 9.51064 4.52607 8.44199Z" fill="white"/>
</svg>
