<svg width="121" height="41" viewBox="0 0 121 41" fill="none" xmlns="http://www.w3.org/2000/svg">
<g clip-path="url(#clip0_5820_2153)">
<path d="M0.0437085 15.6869C0.0437085 12.7803 0.0196688 11.0057 0 9.70542H4.16542C4.22879 10.2977 4.29217 12.1094 4.29217 14.0763C5.40892 11.185 7.98117 9.26834 11.6439 9.18311V13.3704C7.14415 13.4578 4.29217 15.5886 4.29217 21.2488V31.7389H0.0437085V15.6869Z" fill="white"/>
<path d="M16.7536 21.5285C16.7754 25.6808 18.8625 28.7645 22.4641 28.7645C25.7663 28.7645 26.8153 27.1189 27.4906 25.5606H31.7609C30.9107 28.358 28.5396 32.2524 22.333 32.2524C15.3483 32.2524 12.457 26.6621 12.457 20.98C12.457 14.3494 15.8095 9.17871 22.5799 9.17871C29.7743 9.17871 32.1499 14.8346 32.1499 19.6906C32.1619 20.3018 32.1407 20.9131 32.0865 21.522L16.7536 21.5285ZM27.8533 18.6416C27.8118 15.2236 26.1422 12.4568 22.5318 12.4568C18.8428 12.4568 17.2409 15.0225 16.8825 18.6416H27.8533Z" fill="white"/>
<path d="M35.7422 0H39.995V4.88661H35.7422V0ZM35.7422 9.70546H39.995V31.7323H35.7422V9.70546Z" fill="white"/>
<path d="M47.1436 25.3686C47.7425 27.6502 49.4558 28.9833 52.3056 28.9833C55.3499 28.9833 56.5344 27.7026 56.5344 25.8297C56.5344 23.8934 55.5357 23.0171 51.5342 22.0446C45.0675 20.4667 43.7803 18.4845 43.7803 15.4708C43.7803 12.3282 46.0706 9.18555 51.9232 9.18555C57.7757 9.18555 60.1141 12.5445 60.3808 15.5976H56.2896C55.999 14.2863 55.0243 12.3959 51.7396 12.3959C48.8592 12.3959 47.9938 13.764 47.9938 15.1212C47.9938 16.651 48.8548 17.418 52.8017 18.36C59.6115 19.9684 60.8878 22.2544 60.8878 25.5194C60.8878 29.3373 57.8828 32.2527 52.1592 32.2527C46.2586 32.2527 43.4743 29.3024 42.9258 25.3686H47.1436Z" fill="white"/>
<path d="M78.0195 12.1201H81.6495C81.7063 12.7102 81.6495 14.8563 81.6495 16.9084C82.7422 14.0673 85.2555 12.2272 88.7325 12.1201V15.7348C84.4206 15.8637 81.6495 18.1147 81.6495 23.4319V31.6644H78.0195C78.0195 31.6644 78.037 13.2391 78.0195 12.1201Z" fill="white"/>
<path d="M76.8926 12.1201H73.2626C73.2058 12.7102 73.2626 14.8563 73.2626 16.9084C72.1699 14.0673 69.6545 12.2272 66.1797 12.1201V15.7348C70.4915 15.8637 73.2626 18.1147 73.2626 23.4319V31.6644H76.8926C76.8926 31.6644 76.8773 13.2391 76.8926 12.1201Z" fill="white"/>
<path d="M93.7528 9.51318V13.4229C92.6077 13.4076 72.2461 13.4229 72.2461 13.4229V9.51318H93.7528Z" fill="white"/>
<path d="M82.6708 9.51318V13.4229C81.5257 13.4076 61.1641 13.4229 61.1641 13.4229V9.51318H82.6708Z" fill="white"/>
<path d="M99.5321 9.70557C102.841 19.682 104.803 25.7116 105.343 27.9101H105.385C106.053 25.4668 107.57 20.4469 110.979 9.70557H115.254L107.435 32.6744C105.221 39.0973 103.544 40.7801 98.883 40.7801C98.0598 40.7773 97.2375 40.7277 96.42 40.6315V37.0124C97.0073 37.0853 97.5984 37.1225 98.1902 37.1239C100.874 37.1239 101.947 35.9831 103.155 32.5476L94.9492 9.70557H99.5321Z" fill="white"/>
<path d="M116.484 10.3066C116.482 9.90691 116.58 9.51301 116.771 9.16149C116.953 8.81682 117.227 8.52883 117.562 8.32884C117.892 8.12968 118.269 8.02441 118.655 8.02441C119.04 8.02441 119.418 8.12968 119.747 8.32884C120.082 8.52945 120.355 8.81728 120.538 9.16149C120.728 9.51505 120.827 9.90993 120.827 10.311C120.827 10.7121 120.728 11.107 120.538 11.4606C120.354 11.8048 120.08 12.0926 119.745 12.2932C119.416 12.4934 119.038 12.5978 118.652 12.5948C118.267 12.5979 117.888 12.4918 117.56 12.2888C117.226 12.0876 116.952 11.7999 116.769 11.4562C116.579 11.103 116.481 10.7076 116.484 10.3066ZM116.856 10.3066C116.854 10.6347 116.933 10.9583 117.085 11.2486C117.234 11.5358 117.456 11.778 117.73 11.9501C118.006 12.1238 118.326 12.2148 118.652 12.2123C118.977 12.2151 119.296 12.124 119.57 11.9501C119.848 11.7808 120.075 11.539 120.226 11.2508C120.377 10.9593 120.455 10.6359 120.455 10.3077C120.455 9.97958 120.377 9.6562 120.226 9.36473C120.074 9.07759 119.848 8.83675 119.57 8.66758C119.295 8.49586 118.977 8.40568 118.652 8.40752C118.334 8.40618 118.022 8.49237 117.75 8.65665C117.472 8.82282 117.246 9.06162 117.094 9.34725C116.934 9.64143 116.85 9.97149 116.852 10.3066H116.856ZM118.213 10.5405V11.5698H117.752V8.97136H118.611C118.873 8.95716 119.132 9.03441 119.343 9.1899C119.429 9.26199 119.497 9.35293 119.542 9.45564C119.587 9.55836 119.608 9.67008 119.603 9.78215C119.604 9.89081 119.573 9.99742 119.516 10.0895C119.458 10.1816 119.375 10.2554 119.277 10.3023C119.388 10.3608 119.475 10.4557 119.524 10.5711C119.574 10.7067 119.598 10.8506 119.594 10.9951C119.594 11.1633 119.594 11.2813 119.594 11.3513C119.598 11.4108 119.612 11.4691 119.636 11.5239V11.5742H119.162C119.125 11.3784 119.111 11.1788 119.122 10.9798C119.132 10.8596 119.096 10.7402 119.022 10.6454C118.927 10.569 118.806 10.5329 118.685 10.5449L118.213 10.5405ZM118.213 10.1296H118.604C118.74 10.1354 118.874 10.102 118.991 10.0335C119.038 10.0084 119.076 9.97122 119.103 9.92578C119.13 9.88034 119.144 9.82842 119.144 9.77559C119.15 9.72018 119.144 9.66414 119.125 9.61158C119.106 9.55901 119.076 9.51126 119.037 9.47182C118.919 9.39982 118.781 9.36693 118.644 9.37784H118.207L118.213 10.1296Z" fill="white"/>
</g>
<defs>
<clipPath id="clip0_5820_2153">
<rect width="120.817" height="40.78" fill="white"/>
</clipPath>
</defs>
</svg>
