<svg width="104" height="36" viewBox="0 0 104 36" fill="none" xmlns="http://www.w3.org/2000/svg">
<g clip-path="url(#clip0_5762_611)">
<path d="M0.0375134 13.9636C0.0375134 11.4689 0.016881 9.9459 0 8.82988H3.57503C3.62942 9.33818 3.68382 10.8931 3.68382 12.5812C4.64228 10.0997 6.84995 8.45474 9.99357 8.38159V11.9754C6.13156 12.0504 3.68382 13.8792 3.68382 18.7372V27.7404H0.0375134V13.9636Z" fill="#BC172F"/>
<path d="M14.379 18.9772C14.3977 22.541 16.189 25.1876 19.2801 25.1876C22.1142 25.1876 23.0146 23.7752 23.5941 22.4378H27.2592C26.5296 24.8387 24.4945 28.1811 19.1676 28.1811C13.1729 28.1811 10.6914 23.3832 10.6914 18.5064C10.6914 12.8156 13.5687 8.37781 19.3795 8.37781C25.5542 8.37781 27.5931 13.232 27.5931 17.3998C27.6034 17.9243 27.5852 18.449 27.5387 18.9716L14.379 18.9772ZM23.9055 16.4995C23.8699 13.5659 22.4369 11.1913 19.3382 11.1913C16.1721 11.1913 14.7972 13.3933 14.4896 16.4995H23.9055Z" fill="#BC172F"/>
<path d="M30.6738 0.5H34.3239V4.694H30.6738V0.5ZM30.6738 8.82985H34.3239V27.7347H30.6738V8.82985Z" fill="#BC172F"/>
<path d="M40.4618 22.2728C40.9758 24.231 42.4463 25.3751 44.8922 25.3751C47.505 25.3751 48.5216 24.276 48.5216 22.6685C48.5216 21.0067 47.6644 20.2545 44.2301 19.4199C38.68 18.0656 37.5752 16.3644 37.5752 13.7778C37.5752 11.0806 39.5409 8.38342 44.5639 8.38342C49.587 8.38342 51.5939 11.2663 51.8228 13.8866H48.3115C48.0621 12.7612 47.2255 11.1388 44.4064 11.1388C41.9342 11.1388 41.1915 12.313 41.1915 13.4777C41.1915 14.7907 41.9305 15.4491 45.3179 16.2575C51.1625 17.638 52.2579 19.5999 52.2579 22.4022C52.2579 25.679 49.6789 28.1811 44.7665 28.1811C39.7022 28.1811 37.3126 25.649 36.8418 22.2728H40.4618Z" fill="#BC172F"/>
<path d="M66.9609 10.9025H70.0764C70.1252 11.4089 70.0764 13.2508 70.0764 15.0121C71.0143 12.5737 73.1713 10.9944 76.1555 10.9025V14.0048C72.4548 14.1155 70.0764 16.0474 70.0764 20.6109V27.6766H66.9609C66.9609 27.6766 66.9759 11.8628 66.9609 10.9025Z" fill="#BC172F"/>
<path d="M65.9953 10.9025H62.8798C62.8311 11.4089 62.8798 13.2508 62.8798 15.0121C61.942 12.5737 59.7831 10.9944 56.8008 10.9025V14.0048C60.5015 14.1155 62.8798 16.0474 62.8798 20.6109V27.6766H65.9953C65.9953 27.6766 65.9822 11.8628 65.9953 10.9025Z" fill="#BC172F"/>
<path d="M80.4663 8.66479V12.0204C79.4834 12.0072 62.0078 12.0204 62.0078 12.0204V8.66479H80.4663Z" fill="#BC172F"/>
<path d="M70.9546 8.66479V12.0204C69.9717 12.0072 52.4961 12.0204 52.4961 12.0204V8.66479H70.9546Z" fill="#BC172F"/>
<path d="M85.4255 8.82983C88.2652 17.3923 89.9496 22.5672 90.4129 24.4542H90.4485C91.0225 22.3572 92.3242 18.0488 95.2502 8.82983H98.919L92.2079 28.5431C90.3078 34.0557 88.8692 35.5 84.8684 35.5C84.1619 35.4976 83.4562 35.455 82.7545 35.3724V32.2663C83.2585 32.3289 83.7659 32.3608 84.2738 32.362C86.5771 32.362 87.4981 31.3829 88.5353 28.4343L81.4922 8.82983H85.4255Z" fill="#BC172F"/>
<path d="M99.9727 9.3456C99.9706 9.00252 100.055 8.66445 100.218 8.36275C100.375 8.06694 100.61 7.81977 100.897 7.64812C101.18 7.47719 101.505 7.38684 101.835 7.38684C102.166 7.38684 102.49 7.47719 102.773 7.64812C103.06 7.82029 103.295 8.06733 103.452 8.36275C103.615 8.6662 103.7 9.00511 103.7 9.34935C103.7 9.69359 103.615 10.0325 103.452 10.336C103.294 10.6314 103.059 10.8785 102.771 11.0506C102.489 11.2224 102.164 11.312 101.833 11.3094C101.502 11.3121 101.177 11.2211 100.896 11.0468C100.609 10.8741 100.374 10.6272 100.217 10.3322C100.054 10.0291 99.9698 9.68974 99.9727 9.3456ZM100.292 9.3456C100.29 9.62717 100.357 9.90486 100.489 10.154C100.616 10.4005 100.807 10.6084 101.042 10.7561C101.279 10.9052 101.553 10.9833 101.833 10.9812C102.112 10.9836 102.386 10.9054 102.621 10.7561C102.86 10.6108 103.054 10.4033 103.184 10.1559C103.313 9.90574 103.381 9.62819 103.381 9.34654C103.381 9.06489 103.313 8.78734 103.184 8.53719C103.054 8.29075 102.859 8.08404 102.621 7.93885C102.385 7.79146 102.112 7.71407 101.833 7.71564C101.56 7.71449 101.292 7.78847 101.059 7.92947C100.821 8.07209 100.626 8.27704 100.496 8.52218C100.358 8.77467 100.287 9.05795 100.288 9.3456H100.292ZM101.456 9.5463V10.4297H101.061V8.19957H101.798C102.023 8.18738 102.245 8.25368 102.426 8.38713C102.5 8.44901 102.558 8.52706 102.597 8.61521C102.636 8.70337 102.654 8.79926 102.649 8.89544C102.65 8.9887 102.624 9.0802 102.574 9.15925C102.525 9.23829 102.454 9.30163 102.37 9.34185C102.465 9.39206 102.54 9.47355 102.582 9.57256C102.625 9.68894 102.645 9.81243 102.642 9.93644C102.642 10.0809 102.642 10.1821 102.642 10.2422C102.645 10.2932 102.657 10.3433 102.677 10.3903V10.4335H102.27C102.239 10.2654 102.227 10.0941 102.237 9.92331C102.245 9.8202 102.214 9.71771 102.15 9.63633C102.069 9.57077 101.965 9.53978 101.862 9.55005L101.456 9.5463ZM101.456 9.19367H101.792C101.908 9.19863 102.024 9.16997 102.124 9.11114C102.164 9.08967 102.197 9.05771 102.221 9.01871C102.244 8.97972 102.256 8.93515 102.255 8.88981C102.261 8.84225 102.255 8.79416 102.239 8.74904C102.223 8.70393 102.197 8.66295 102.164 8.62909C102.062 8.5673 101.944 8.53907 101.826 8.54844H101.451L101.456 9.19367Z" fill="#BC172F"/>
</g>
<defs>
<clipPath id="clip0_5762_611">
<rect width="103.693" height="35" fill="white" transform="translate(0 0.5)"/>
</clipPath>
</defs>
</svg>
