<svg width="70" height="100" viewBox="0 0 70 100" fill="none" xmlns="http://www.w3.org/2000/svg">
<g clip-path="url(#clip0_2245_21966)">
<path d="M58.7386 37.9557V37.2933H59.0742C59.1012 37.2933 59.1305 37.3011 59.1622 37.3166C59.1939 37.3316 59.2208 37.3549 59.243 37.3866C59.2657 37.4177 59.2771 37.4572 59.2771 37.5051C59.2771 37.5536 59.2654 37.5949 59.2421 37.629C59.2187 37.6625 59.1903 37.6879 59.1568 37.7053C59.1239 37.7226 59.0928 37.7313 59.0635 37.7313H58.8211V37.6236H59.0186C59.0383 37.6236 59.0596 37.6137 59.0823 37.594C59.1057 37.5742 59.1173 37.5446 59.1173 37.5051C59.1173 37.4644 59.1057 37.4369 59.0823 37.4225C59.0596 37.4082 59.0395 37.401 59.0222 37.401H58.884V37.9557H58.7386ZM59.1389 37.6433L59.304 37.9557H59.1442L58.9827 37.6433H59.1389ZM58.9899 38.3506C58.8905 38.3506 58.7975 38.332 58.7107 38.2949C58.624 38.2578 58.5477 38.2064 58.4819 38.1406C58.416 38.0747 58.3646 37.9985 58.3275 37.9117C58.2904 37.8249 58.2718 37.7319 58.2718 37.6326C58.2718 37.5332 58.2904 37.4402 58.3275 37.3534C58.3646 37.2667 58.416 37.1904 58.4819 37.1245C58.5477 37.0587 58.624 37.0073 58.7107 36.9702C58.7975 36.9331 58.8905 36.9145 58.9899 36.9145C59.0892 36.9145 59.1822 36.9331 59.269 36.9702C59.3558 37.0073 59.4321 37.0587 59.4979 37.1245C59.5637 37.1904 59.6152 37.2667 59.6523 37.3534C59.6894 37.4402 59.7079 37.5332 59.7079 37.6326C59.7079 37.7319 59.6894 37.8249 59.6523 37.9117C59.6152 37.9985 59.5637 38.0747 59.4979 38.1406C59.4321 38.2064 59.3558 38.2578 59.269 38.2949C59.1822 38.332 59.0892 38.3506 58.9899 38.3506ZM58.9899 38.1783C59.0904 38.1783 59.1819 38.1537 59.2645 38.1047C59.3471 38.0556 59.4129 37.9898 59.462 37.9072C59.511 37.8246 59.5356 37.7331 59.5356 37.6326C59.5356 37.532 59.511 37.4405 59.462 37.3579C59.4129 37.2753 59.3471 37.2095 59.2645 37.1604C59.1819 37.1114 59.0904 37.0868 58.9899 37.0868C58.8893 37.0868 58.7978 37.1114 58.7152 37.1604C58.6326 37.2095 58.5668 37.2753 58.5178 37.3579C58.4687 37.4405 58.4442 37.532 58.4442 37.6326C58.4442 37.7331 58.4687 37.8246 58.5178 37.9072C58.5668 37.9898 58.6326 38.0556 58.7152 38.1047C58.7978 38.1537 58.8893 38.1783 58.9899 38.1783Z" fill="white"/>
<path d="M39.373 41.3958H43.2989C43.3596 42.0343 43.2989 44.356 43.2989 46.5748C44.4887 43.4975 47.1995 41.5113 50.959 41.3958V45.3104C46.2959 45.4513 43.2989 47.8844 43.2989 53.6344V62.5406H39.373C39.373 62.5406 39.3886 42.6052 39.373 41.3958Z" fill="white"/>
<path d="M38.1538 41.3958H34.2279C34.1673 42.0343 34.2279 44.356 34.2279 46.5748C33.0381 43.4975 30.326 41.5128 26.5664 41.3958V45.3104C31.231 45.4513 34.2279 47.8844 34.2279 53.6344V62.5406H38.1538C38.1538 62.5406 38.1369 42.6052 38.1538 41.3958Z" fill="white"/>
<path d="M56.3843 38.5764V42.8054C55.1452 42.7885 33.125 42.8054 33.125 42.8054V38.5764H56.3843Z" fill="white"/>
<path d="M44.4019 38.5764V42.8054C43.1628 42.7885 21.1426 42.8054 21.1426 42.8054V38.5764H44.4019Z" fill="white"/>
</g>
<rect x="2" y="2" width="176" height="96" rx="7.71429" stroke="white" stroke-width="4"/>
<defs>
<clipPath id="clip0_2245_21966">
<rect width="38.8571" height="25.3978" fill="white" transform="translate(21.1426 37.1428)"/>
</clipPath>
</defs>
</svg>
