<svg width="21" height="17" viewBox="0 0 21 17" fill="none" xmlns="http://www.w3.org/2000/svg">
<path d="M6.81727 16.6152C14.5004 16.6152 18.7033 10.249 18.7033 4.73799C18.7033 4.55985 18.7033 4.37916 18.6957 4.20102C19.514 3.60867 20.2202 2.8753 20.7813 2.03528C20.0169 2.3723 19.2069 2.59441 18.3776 2.69442C19.2512 2.17225 19.9055 1.35066 20.2188 0.382356C19.3981 0.868594 18.4998 1.20993 17.5632 1.39142C16.9336 0.720861 16.1004 0.276637 15.1927 0.127555C14.2851 -0.0215271 13.3536 0.132853 12.5425 0.566783C11.7315 1.00071 11.0861 1.68998 10.7065 2.5278C10.3268 3.36563 10.2341 4.30527 10.4425 5.20117C8.78163 5.11789 7.15679 4.68642 5.67338 3.93474C4.18998 3.18307 2.88114 2.12798 1.83176 0.837898C1.29903 1.75799 1.13646 2.84635 1.37704 3.88197C1.61763 4.91758 2.24335 5.82281 3.12713 6.41383C2.46486 6.39133 1.81716 6.21349 1.23625 5.89466V5.95192C1.23739 6.91579 1.5713 7.8497 2.18153 8.5958C2.79176 9.34189 3.64088 9.85441 4.58537 10.0467C4.22687 10.1455 3.85654 10.1947 3.48469 10.193C3.22254 10.1938 2.96092 10.1695 2.7034 10.1205C2.97035 10.9502 3.49013 11.6757 4.18995 12.1952C4.88977 12.7148 5.73458 13.0024 6.60604 13.0179C5.1256 14.1807 3.29688 14.8113 1.4144 14.8083C1.08269 14.8097 0.751218 14.7905 0.421875 14.751C2.3325 15.9691 4.55139 16.6159 6.81727 16.6152Z" fill="white"/>
</svg>
